<svg width="100" height="48" viewBox="0 0 100 48" fill="none" xmlns="http://www.w3.org/2000/svg">
<g clip-path="url(#clip0_1981_19)">
<rect width="100" height="48" fill="white"/>
<path d="M25.1172 27.6289C25.5859 27.6289 26.0091 27.8177 26.3867 28.1953C26.7773 28.5599 26.9727 28.9701 26.9727 29.4258C26.9727 29.7904 26.9076 30.1029 26.7773 30.3633C26.1263 31.7956 25.2018 33.1302 24.0039 34.3672C22.819 35.5911 21.4062 36.5742 19.7656 37.3164C18.125 38.0586 16.2826 38.4297 14.2383 38.4297C12.2201 38.4297 10.3971 38.0456 8.76953 37.2773C7.14193 36.5091 5.7487 35.4609 4.58984 34.1328C3.44401 32.7917 2.55859 31.2552 1.93359 29.5234C1.32161 27.7786 1.01562 25.9362 1.01562 23.9961C1.01562 22.082 1.32812 20.2591 1.95312 18.5273C2.57812 16.7956 3.47005 15.2656 4.62891 13.9375C5.78776 12.5964 7.17448 11.5417 8.78906 10.7734C10.4036 10.0052 12.2005 9.62109 14.1797 9.62109C16.1849 9.62109 18.0013 9.97917 19.6289 10.6953C21.2695 11.3984 22.6888 12.3424 23.8867 13.5273C25.0977 14.6992 26.0417 15.9883 26.7188 17.3945C26.862 17.668 26.9336 17.9544 26.9336 18.2539C26.9336 18.7357 26.7578 19.1784 26.4062 19.582C26.0677 19.9727 25.6706 20.168 25.2148 20.168C24.7721 20.168 24.3685 20.0768 24.0039 19.8945C23.6523 19.6992 23.3854 19.4128 23.2031 19.0352C22.474 17.5247 21.3281 16.2292 19.7656 15.1484C18.2161 14.0677 16.3542 13.5273 14.1797 13.5273C12.2917 13.5273 10.651 14.0091 9.25781 14.9727C7.8776 15.9362 6.8099 17.2188 6.05469 18.8203C5.29948 20.4089 4.92188 22.1471 4.92188 24.0352C4.92188 25.9362 5.29297 27.681 6.03516 29.2695C6.79036 30.8581 7.85807 32.1276 9.23828 33.0781C10.6315 34.0286 12.2852 34.5039 14.1992 34.5039C15.6315 34.5039 16.9401 34.2435 18.125 33.7227C19.3229 33.1888 20.3581 32.4857 21.2305 31.6133C22.1029 30.7409 22.7669 29.8034 23.2227 28.8008C23.5742 28.0195 24.2057 27.6289 25.1172 27.6289Z" fill="white"/>
<path d="M45.4414 36.5938C45.4414 37.1016 45.2526 37.5443 44.875 37.9219C44.5104 38.2865 44.1133 38.4688 43.6836 38.4688C43.319 38.4688 43 38.3385 42.7266 38.0781C42.4531 37.8307 42.2643 37.6419 42.1602 37.5117C40.9753 36.6784 39.9466 35.7344 39.0742 34.6797C38.2148 33.612 37.4792 32.4531 36.8672 31.2031C36.3333 30.0833 35.7865 29.2109 35.2266 28.5859C34.6797 27.9609 34.0156 27.5182 33.2344 27.2578C32.4531 26.9974 31.4375 26.8607 30.1875 26.8477L28.4102 26.8281L28.4297 36.2812V36.3203C28.4297 36.8411 28.2344 37.2969 27.8438 37.6875C27.4661 38.0781 27.0104 38.2734 26.4766 38.2734C25.9427 38.2734 25.4805 38.0651 25.0898 37.6484C24.7122 37.2318 24.5234 36.737 24.5234 36.1641L24.4648 11.9258C24.4648 11.3789 24.6536 10.9232 25.0312 10.5586C25.4219 10.181 25.8776 9.98568 26.3984 9.97266L31.5938 9.95312H32.043C34.2826 9.95312 36.2812 10.2852 38.0391 10.9492C39.7969 11.6003 41.1836 12.5833 42.1992 13.8984C43.2148 15.2005 43.7227 16.8216 43.7227 18.7617C43.7227 20.0117 43.4622 21.125 42.9414 22.1016C42.4336 23.0781 41.763 23.9049 40.9297 24.582C40.0964 25.2591 39.1979 25.7865 38.2344 26.1641C38.6771 26.724 39.1198 27.4141 39.5625 28.2344C40.3177 29.6797 41.0534 30.9622 41.7695 32.082C42.4857 33.1888 43.4297 34.1654 44.6016 35.0117C44.8359 35.168 45.0312 35.3893 45.1875 35.6758C45.3568 35.9492 45.4414 36.2552 45.4414 36.5938ZM32.1406 13.8594H28.3711L28.4102 23.1953L32.1797 23.1562C34.5755 23.1302 36.4505 22.7656 37.8047 22.0625C39.1719 21.3594 39.8555 20.2331 39.8555 18.6836C39.8555 17.0951 39.1328 15.8971 37.6875 15.0898C36.2422 14.2695 34.3932 13.8594 32.1406 13.8594Z" fill="white"/>
<path d="M47.875 10.7539C48.0182 10.4284 48.2591 10.1549 48.5977 9.93359C48.9492 9.69922 49.3073 9.58203 49.6719 9.58203C50.0234 9.58203 50.375 9.69922 50.7266 9.93359C51.0911 10.1549 51.3385 10.4284 51.4688 10.7539L62.2109 35.6758C62.3281 35.9362 62.3867 36.2031 62.3867 36.4766C62.3867 37.0104 62.1914 37.4727 61.8008 37.8633C61.4232 38.2409 60.9674 38.4297 60.4336 38.4297C60.069 38.4297 59.7109 38.3125 59.3594 38.0781C59.0078 37.8438 58.7604 37.5638 58.6172 37.2383L55.2773 29.4844L44.1445 29.3281L40.7266 37.2578C40.5964 37.5833 40.3555 37.8633 40.0039 38.0977C39.6523 38.3451 39.2943 38.4688 38.9297 38.4688C38.3958 38.4688 37.9336 38.2799 37.543 37.9023C37.1654 37.5117 36.9766 37.0495 36.9766 36.5156C36.9766 36.2422 37.0352 35.9753 37.1523 35.7148L47.875 10.7539ZM49.6719 16.4766L45.8242 25.4414L53.5781 25.5391L49.6719 16.4766Z" fill="white"/>
<path d="M74.5103 11.8341C74.5103 11.2762 74.7076 10.8 75.1021 10.4054C75.5104 9.99717 75.9934 9.79307 76.5513 9.79307H76.5717L96.9614 9.67061H97.0022C97.5601 9.67061 98.0364 9.87471 98.431 10.2829C98.8392 10.6775 99.0433 11.1537 99.0433 11.7116C99.0433 12.2695 98.8392 12.7525 98.431 13.1607C98.0364 13.5553 97.5601 13.7526 97.0022 13.7526H96.9818L88.8586 13.7935L88.7565 37.2243V37.2447C88.7565 37.789 88.5524 38.2584 88.1442 38.653C87.7496 39.0476 87.2734 39.2449 86.7155 39.2449C86.1576 39.2449 85.6746 39.0476 85.2664 38.653C84.8718 38.2584 84.6745 37.789 84.6745 37.2447V37.2039L84.7766 13.8139L76.5717 13.8751H76.5513C75.9934 13.8751 75.5104 13.6778 75.1021 13.2832C74.7076 12.875 74.5103 12.392 74.5103 11.8341Z" fill="white"/>
<rect y="40.8406" width="62" height="7" transform="rotate(-45 0 40.8406)" fill="#181818"/>
<path d="M59.4648 11.9062C59.4648 11.3724 59.6536 10.9232 60.0312 10.5586C60.4219 10.181 60.8841 9.99219 61.418 9.99219L77.3359 9.97266H77.3555C77.8893 9.97266 78.3451 10.168 78.7227 10.5586C79.1133 10.9362 79.3086 11.3919 79.3086 11.9258C79.3086 12.4596 79.1133 12.9219 78.7227 13.3125C78.3451 13.6901 77.8893 13.8789 77.3555 13.8789H77.3359L63.3711 13.8984L63.3906 21.0078L73.5664 20.9102H73.7812C74.3021 20.9102 74.7253 21.1185 75.0508 21.5352C75.3763 21.9518 75.5391 22.3555 75.5391 22.7461C75.5391 23.306 75.3568 23.7943 74.9922 24.2109C74.6276 24.6146 74.1589 24.8164 73.5859 24.8164L63.4102 24.9141L63.4297 36.2812V36.3203C63.4297 36.8411 63.2344 37.2904 62.8438 37.668C62.4661 38.0456 62.0104 38.2344 61.4766 38.2344C60.9427 38.2344 60.4805 38.0456 60.0898 37.668C59.7122 37.2904 59.5234 36.8411 59.5234 36.3203V36.3008L59.4648 11.9062Z" fill="white"/>
<rect x="39" y="40.8406" width="62" height="7" transform="rotate(-45 39 40.8406)" fill="#181818"/>
<path d="M45.4414 36.5938C45.4414 37.1016 45.2526 37.5443 44.875 37.9219C44.5104 38.2865 44.1133 38.4688 43.6836 38.4688C43.319 38.4688 43 38.3385 42.7266 38.0781C42.4531 37.8307 42.2643 37.6419 42.1602 37.5117C40.9753 36.6784 39.9466 35.7344 39.0742 34.6797C38.2148 33.612 37.4792 32.4531 36.8672 31.2031C36.3333 30.0833 35.7865 29.2109 35.2266 28.5859C34.6797 27.9609 34.0156 27.5182 33.2344 27.2578C32.4531 26.9974 31.4375 26.8607 30.1875 26.8477L28.4102 26.8281L28.4297 36.2812V36.3203C28.4297 36.8411 28.2344 37.2969 27.8438 37.6875C27.4661 38.0781 27.0104 38.2734 26.4766 38.2734C25.9427 38.2734 25.4805 38.0651 25.0898 37.6484C24.7122 37.2318 24.5234 36.737 24.5234 36.1641L24.4648 11.9258C24.4648 11.3789 24.6536 10.9232 25.0312 10.5586C25.4219 10.181 25.8776 9.98568 26.3984 9.97266L31.5938 9.95312H32.043C34.2826 9.95312 36.2812 10.2852 38.0391 10.9492C39.7969 11.6003 41.1836 12.5833 42.1992 13.8984C43.2148 15.2005 43.7227 16.8216 43.7227 18.7617C43.7227 20.0117 43.4622 21.125 42.9414 22.1016C42.4336 23.0781 41.763 23.9049 40.9297 24.582C40.0964 25.2591 39.1979 25.7865 38.2344 26.1641C38.6771 26.724 39.1198 27.4141 39.5625 28.2344C40.3177 29.6797 41.0534 30.9622 41.7695 32.082C42.4857 33.1888 43.4297 34.1654 44.6016 35.0117C44.8359 35.168 45.0312 35.3893 45.1875 35.6758C45.3568 35.9492 45.4414 36.2552 45.4414 36.5938ZM32.1406 13.8594H28.3711L28.4102 23.1953L32.1797 23.1562C34.5755 23.1302 36.4505 22.7656 37.8047 22.0625C39.1719 21.3594 39.8555 20.2331 39.8555 18.6836C39.8555 17.0951 39.1328 15.8971 37.6875 15.0898C36.2422 14.2695 34.3932 13.8594 32.1406 13.8594Z" fill="#181818"/>
<path d="M47.875 10.7539C48.0182 10.4284 48.2591 10.1549 48.5977 9.93359C48.9492 9.69922 49.3073 9.58203 49.6719 9.58203C50.0234 9.58203 50.375 9.69922 50.7266 9.93359C51.0911 10.1549 51.3385 10.4284 51.4688 10.7539L62.2109 35.6758C62.3281 35.9362 62.3867 36.2031 62.3867 36.4766C62.3867 37.0104 62.1914 37.4727 61.8008 37.8633C61.4232 38.2409 60.9674 38.4297 60.4336 38.4297C60.069 38.4297 59.7109 38.3125 59.3594 38.0781C59.0078 37.8438 58.7604 37.5638 58.6172 37.2383L55.2773 29.4844L44.1445 29.3281L40.7266 37.2578C40.5964 37.5833 40.3555 37.8633 40.0039 38.0977C39.6523 38.3451 39.2943 38.4688 38.9297 38.4688C38.3958 38.4688 37.9336 38.2799 37.543 37.9023C37.1654 37.5117 36.9766 37.0495 36.9766 36.5156C36.9766 36.2422 37.0352 35.9753 37.1523 35.7148L47.875 10.7539ZM49.6719 16.4766L45.8242 25.4414L53.5781 25.5391L49.6719 16.4766Z" fill="#181818"/>
<path d="M74.5103 11.8341C74.5103 11.2762 74.7076 10.8 75.1021 10.4054C75.5104 9.99717 75.9934 9.79307 76.5513 9.79307H76.5717L96.9614 9.67061H97.0022C97.5601 9.67061 98.0364 9.87471 98.431 10.2829C98.8392 10.6775 99.0433 11.1537 99.0433 11.7116C99.0433 12.2695 98.8392 12.7525 98.431 13.1607C98.0364 13.5553 97.5601 13.7526 97.0022 13.7526H96.9818L88.8586 13.7935L88.7565 37.2243V37.2447C88.7565 37.789 88.5524 38.2584 88.1442 38.653C87.7496 39.0476 87.2734 39.2449 86.7155 39.2449C86.1576 39.2449 85.6746 39.0476 85.2664 38.653C84.8718 38.2584 84.6745 37.789 84.6745 37.2447V37.2039L84.7766 13.8139L76.5717 13.8751H76.5513C75.9934 13.8751 75.5104 13.6778 75.1021 13.2832C74.7076 12.875 74.5103 12.392 74.5103 11.8341Z" fill="#181818"/>
<path d="M59.4648 11.9062C59.4648 11.3724 59.6536 10.9232 60.0312 10.5586C60.4219 10.181 60.8841 9.99219 61.418 9.99219L77.3359 9.97266H77.3555C77.8893 9.97266 78.3451 10.168 78.7227 10.5586C79.1133 10.9362 79.3086 11.3919 79.3086 11.9258C79.3086 12.4596 79.1133 12.9219 78.7227 13.3125C78.3451 13.6901 77.8893 13.8789 77.3555 13.8789H77.3359L63.3711 13.8984L63.3906 21.0078L73.5664 20.9102H73.7812C74.3021 20.9102 74.7253 21.1185 75.0508 21.5352C75.3763 21.9518 75.5391 22.3555 75.5391 22.7461C75.5391 23.306 75.3568 23.7943 74.9922 24.2109C74.6276 24.6146 74.1589 24.8164 73.5859 24.8164L63.4102 24.9141L63.4297 36.2812V36.3203C63.4297 36.8411 63.2344 37.2904 62.8438 37.668C62.4661 38.0456 62.0104 38.2344 61.4766 38.2344C60.9427 38.2344 60.4805 38.0456 60.0898 37.668C59.7122 37.2904 59.5234 36.8411 59.5234 36.3203V36.3008L59.4648 11.9062Z" fill="#181818"/>
<rect x="39" y="40.8406" width="62" height="7" transform="rotate(-45 39 40.8406)" fill="white"/>
<path d="M25.1172 27.6289C25.5859 27.6289 26.0091 27.8177 26.3867 28.1953C26.7773 28.5599 26.9727 28.9701 26.9727 29.4258C26.9727 29.7904 26.9076 30.1029 26.7773 30.3633C26.1263 31.7956 25.2018 33.1302 24.0039 34.3672C22.819 35.5911 21.4062 36.5742 19.7656 37.3164C18.125 38.0586 16.2826 38.4297 14.2383 38.4297C12.2201 38.4297 10.3971 38.0456 8.76953 37.2773C7.14193 36.5091 5.7487 35.4609 4.58984 34.1328C3.44401 32.7917 2.55859 31.2552 1.93359 29.5234C1.32161 27.7786 1.01562 25.9362 1.01562 23.9961C1.01562 22.082 1.32812 20.2591 1.95312 18.5273C2.57812 16.7956 3.47005 15.2656 4.62891 13.9375C5.78776 12.5964 7.17448 11.5417 8.78906 10.7734C10.4036 10.0052 12.2005 9.62109 14.1797 9.62109C16.1849 9.62109 18.0013 9.97917 19.6289 10.6953C21.2695 11.3984 22.6888 12.3424 23.8867 13.5273C25.0977 14.6992 26.0417 15.9883 26.7188 17.3945C26.862 17.668 26.9336 17.9544 26.9336 18.2539C26.9336 18.7357 26.7578 19.1784 26.4062 19.582C26.0677 19.9727 25.6706 20.168 25.2148 20.168C24.7721 20.168 24.3685 20.0768 24.0039 19.8945C23.6523 19.6992 23.3854 19.4128 23.2031 19.0352C22.474 17.5247 21.3281 16.2292 19.7656 15.1484C18.2161 14.0677 16.3542 13.5273 14.1797 13.5273C12.2917 13.5273 10.651 14.0091 9.25781 14.9727C7.8776 15.9362 6.8099 17.2188 6.05469 18.8203C5.29948 20.4089 4.92188 22.1471 4.92188 24.0352C4.92188 25.9362 5.29297 27.681 6.03516 29.2695C6.79036 30.8581 7.85807 32.1276 9.23828 33.0781C10.6315 34.0286 12.2852 34.5039 14.1992 34.5039C15.6315 34.5039 16.9401 34.2435 18.125 33.7227C19.3229 33.1888 20.3581 32.4857 21.2305 31.6133C22.1029 30.7409 22.7669 29.8034 23.2227 28.8008C23.5742 28.0195 24.2057 27.6289 25.1172 27.6289Z" fill="#181818"/>
<rect y="40.8406" width="62" height="7" transform="rotate(-45 0 40.8406)" fill="white"/>
</g>
<defs>
<clipPath id="clip0_1981_19">
<rect width="100" height="48" fill="white"/>
</clipPath>
</defs>
</svg>
